<svg xmlns="http://www.w3.org/2000/svg" width="1200" height="650" viewBox="0 0 1200 650">
<rect width="1200" height="650" fill="#f7f8fa"/><text x="70" y="55" font-family="Arial" font-size="28" font-weight="700" fill="#1f2937">Myanmar internal displacement trend, 2020-2025</text><text x="70" y="88" font-family="Arial" font-size="16" fill="#4b5563">Millions of IDPs; 2025 is an HNRP projection, not an observed census.</text>
<line x1="120" y1="530" x2="1120" y2="530" stroke="#374151" stroke-width="2"/><line x1="120" y1="140" x2="120" y2="530" stroke="#374151" stroke-width="2"/>
<text x="70" y="535" font-family="Arial" font-size="14">0</text><text x="55" y="405" font-family="Arial" font-size="14">2M</text><text x="55" y="275" font-family="Arial" font-size="14">4M</text><text x="55" y="145" font-family="Arial" font-size="14">6M</text>
<polyline points="180,509 360,488 540,433 720,361 900,303 1080,238" fill="none" stroke="#2563eb" stroke-width="5"/>
<circle cx="180" cy="509" r="8" fill="#2563eb"/><circle cx="360" cy="488" r="8" fill="#2563eb"/><circle cx="540" cy="433" r="8" fill="#2563eb"/><circle cx="720" cy="361" r="8" fill="#2563eb"/><circle cx="900" cy="303" r="8" fill="#2563eb"/><circle cx="1080" cy="238" r="8" fill="#d97706"/>
<text x="165" y="565" font-family="Arial" font-size="16">2020</text><text x="345" y="565" font-family="Arial" font-size="16">2021</text><text x="525" y="565" font-family="Arial" font-size="16">2022</text><text x="705" y="565" font-family="Arial" font-size="16">2023</text><text x="885" y="565" font-family="Arial" font-size="16">2024</text><text x="1065" y="565" font-family="Arial" font-size="16">2025*</text>
<text x="145" y="490" font-family="Arial" font-size="14">0.328M</text><text x="325" y="470" font-family="Arial" font-size="14">0.648M</text><text x="505" y="415" font-family="Arial" font-size="14">1.5M</text><text x="685" y="343" font-family="Arial" font-size="14">2.6M</text><text x="865" y="285" font-family="Arial" font-size="14">3.5M</text><text x="1040" y="220" font-family="Arial" font-size="14">4.5M*</text>
<text x="120" y="620" font-family="Arial" font-size="14" fill="#4b5563">Source: OCHA, Myanmar Humanitarian Needs and Response Plan 2025, p. 8. Values rounded as presented in the source.</text>
</svg>
