<svg xmlns="http://www.w3.org/2000/svg" width="1200" height="430" viewBox="0 0 1200 430">
<rect width="1200" height="430" fill="#ffffff"/><text x="55" y="40" font-family="Arial" font-size="24" font-weight="bold" fill="#18232d">Verified framework comparison</text>
<g font-family="Arial" font-size="15"><rect x="55" y="75" width="1090" height="45" fill="#263238"/><g fill="#ffffff" font-weight="bold"><text x="75" y="103">Framework</text><text x="300" y="103">Document type</text><text x="525" y="103">Horizon / scope</text><text x="780" y="103">Implementation evidence</text></g>
<rect x="55" y="120" width="1090" height="75" fill="#e3f2fd"/><text x="75" y="150">MSDP</text><text x="300" y="150">national development plan</text><text x="525" y="150">2018–2030; 5 goals / 3 pillars</text><text x="780" y="145">action plans and matrix stated;</text><text x="780" y="168">outcomes not established here</text>
<rect x="55" y="195" width="1090" height="75" fill="#fff3e0"/><text x="75" y="225">FDC</text><text x="300" y="225">political/interim framework</text><text x="525" y="225">2021; federal-democratic transition</text><text x="780" y="220">ministerial plans mandated;</text><text x="780" y="243">no performance dataset</text>
<rect x="55" y="270" width="1090" height="75" fill="#f3e5f5"/><text x="75" y="300">MERP</text><text x="300" y="300">official plan presentation</text><text x="525" y="300">COVID recovery; short/medium term</text><text x="780" y="295">10 plans / 407 lines / KPIs reported;</text><text x="780" y="318">full plan and approval unresolved</text></g>
<text x="55" y="390" font-family="Arial" font-size="14" fill="#455a64">Sources: MMR-MSDP-2018; MMR-CRPH-FDC-2021; MMR-MOI-MERP-2021. This is a document-status comparison, not a performance ranking.</text>
</svg>
