<?xml version="1.0" encoding="utf-8" standalone="no"?>
<!DOCTYPE svg PUBLIC "-//W3C//DTD SVG 1.1//EN"
  "http://www.w3.org/Graphics/SVG/1.1/DTD/svg11.dtd">
<svg xmlns:xlink="http://www.w3.org/1999/xlink" width="709.445234pt" height="374.401094pt" viewBox="0 0 709.445234 374.401094" xmlns="http://www.w3.org/2000/svg" version="1.1">
 <metadata>
  <rdf:RDF xmlns:dc="http://purl.org/dc/elements/1.1/" xmlns:cc="http://creativecommons.org/ns#" xmlns:rdf="http://www.w3.org/1999/02/22-rdf-syntax-ns#">
   <cc:Work>
    <dc:type rdf:resource="http://purl.org/dc/dcmitype/StillImage"/>
    <dc:date>2026-08-27T01:40:55.281930</dc:date>
    <dc:format>image/svg+xml</dc:format>
    <dc:creator>
     <cc:Agent>
      <dc:title>Matplotlib v3.11.1, https://matplotlib.org/</dc:title>
     </cc:Agent>
    </dc:creator>
   </cc:Work>
  </rdf:RDF>
 </metadata>
 <defs>
  <style type="text/css">*{stroke-linejoin: round; stroke-linecap: butt}</style>
 </defs>
 <g id="figure_1">
  <g id="patch_1">
   <path d="M 0 374.401094 
L 709.445234 374.401094 
L 709.445234 0 
L 0 0 
z
" style="fill: #ffffff"/>
  </g>
  <g id="axes_1">
   <g id="patch_2">
    <path d="M 45.013203 339.201094 
L 531.902344 339.201094 
L 531.902344 51.837812 
L 45.013203 51.837812 
z
" style="fill: #ffffff"/>
   </g>
   <g id="matplotlib.axis_1">
    <g id="xtick_1">
     <g id="line2d_1">
      <defs>
       <path id="m60b8bbc285" d="M 0 0 
L 0 3.5 
" style="stroke: #66736e; stroke-width: 0.8"/>
      </defs>
      <g>
       <use xlink:href="#m60b8bbc285" x="134.500733" y="339.201094" style="fill: #66736e; stroke: #66736e; stroke-width: 0.8"/>
      </g>
     </g>
     <g id="text_1">
      <!-- 1980 -->
      <g style="fill: #66736e" transform="translate(124.320733 352.279219) scale(0.08 -0.08)">
       <defs>
        <path id="DejaVuSans-14" d="M 794 531 
L 1825 531 
L 1825 4091 
L 703 3866 
L 703 4441 
L 1819 4666 
L 2450 4666 
L 2450 531 
L 3481 531 
L 3481 0 
L 794 0 
L 794 531 
z
" transform="scale(0.015625)"/>
        <path id="DejaVuSans-1c" d="M 703 97 
L 703 672 
Q 941 559 1184 500 
Q 1428 441 1663 441 
Q 2288 441 2617 861 
Q 2947 1281 2994 2138 
Q 2813 1869 2534 1725 
Q 2256 1581 1919 1581 
Q 1219 1581 811 2004 
Q 403 2428 403 3163 
Q 403 3881 828 4315 
Q 1253 4750 1959 4750 
Q 2769 4750 3195 4129 
Q 3622 3509 3622 2328 
Q 3622 1225 3098 567 
Q 2575 -91 1691 -91 
Q 1453 -91 1209 -44 
Q 966 3 703 97 
z
M 1959 2075 
Q 2384 2075 2632 2365 
Q 2881 2656 2881 3163 
Q 2881 3666 2632 3958 
Q 2384 4250 1959 4250 
Q 1534 4250 1286 3958 
Q 1038 3666 1038 3163 
Q 1038 2656 1286 2365 
Q 1534 2075 1959 2075 
z
" transform="scale(0.015625)"/>
        <path id="DejaVuSans-1b" d="M 2034 2216 
Q 1584 2216 1326 1975 
Q 1069 1734 1069 1313 
Q 1069 891 1326 650 
Q 1584 409 2034 409 
Q 2484 409 2743 651 
Q 3003 894 3003 1313 
Q 3003 1734 2745 1975 
Q 2488 2216 2034 2216 
z
M 1403 2484 
Q 997 2584 770 2862 
Q 544 3141 544 3541 
Q 544 4100 942 4425 
Q 1341 4750 2034 4750 
Q 2731 4750 3128 4425 
Q 3525 4100 3525 3541 
Q 3525 3141 3298 2862 
Q 3072 2584 2669 2484 
Q 3125 2378 3379 2068 
Q 3634 1759 3634 1313 
Q 3634 634 3220 271 
Q 2806 -91 2034 -91 
Q 1263 -91 848 271 
Q 434 634 434 1313 
Q 434 1759 690 2068 
Q 947 2378 1403 2484 
z
M 1172 3481 
Q 1172 3119 1398 2916 
Q 1625 2713 2034 2713 
Q 2441 2713 2670 2916 
Q 2900 3119 2900 3481 
Q 2900 3844 2670 4047 
Q 2441 4250 2034 4250 
Q 1625 4250 1398 4047 
Q 1172 3844 1172 3481 
z
" transform="scale(0.015625)"/>
        <path id="DejaVuSans-13" d="M 2034 4250 
Q 1547 4250 1301 3770 
Q 1056 3291 1056 2328 
Q 1056 1369 1301 889 
Q 1547 409 2034 409 
Q 2525 409 2770 889 
Q 3016 1369 3016 2328 
Q 3016 3291 2770 3770 
Q 2525 4250 2034 4250 
z
M 2034 4750 
Q 2819 4750 3233 4129 
Q 3647 3509 3647 2328 
Q 3647 1150 3233 529 
Q 2819 -91 2034 -91 
Q 1250 -91 836 529 
Q 422 1150 422 2328 
Q 422 3509 836 4129 
Q 1250 4750 2034 4750 
z
" transform="scale(0.015625)"/>
       </defs>
       <use xlink:href="#DejaVuSans-14"/>
       <use xlink:href="#DejaVuSans-1c" transform="translate(63.625 0)"/>
       <use xlink:href="#DejaVuSans-1b" transform="translate(127.25 0)"/>
       <use xlink:href="#DejaVuSans-13" transform="translate(190.875 0)"/>
      </g>
     </g>
    </g>
    <g id="xtick_2">
     <g id="line2d_2">
      <g>
       <use xlink:href="#m60b8bbc285" x="230.723883" y="339.201094" style="fill: #66736e; stroke: #66736e; stroke-width: 0.8"/>
      </g>
     </g>
     <g id="text_2">
      <!-- 1990 -->
      <g style="fill: #66736e" transform="translate(220.543883 352.279219) scale(0.08 -0.08)">
       <use xlink:href="#DejaVuSans-14"/>
       <use xlink:href="#DejaVuSans-1c" transform="translate(63.625 0)"/>
       <use xlink:href="#DejaVuSans-1c" transform="translate(127.25 0)"/>
       <use xlink:href="#DejaVuSans-13" transform="translate(190.875 0)"/>
      </g>
     </g>
    </g>
    <g id="xtick_3">
     <g id="line2d_3">
      <g>
       <use xlink:href="#m60b8bbc285" x="326.947034" y="339.201094" style="fill: #66736e; stroke: #66736e; stroke-width: 0.8"/>
      </g>
     </g>
     <g id="text_3">
      <!-- 2000 -->
      <g style="fill: #66736e" transform="translate(316.767034 352.279219) scale(0.08 -0.08)">
       <defs>
        <path id="DejaVuSans-15" d="M 1228 531 
L 3431 531 
L 3431 0 
L 469 0 
L 469 531 
Q 828 903 1448 1529 
Q 2069 2156 2228 2338 
Q 2531 2678 2651 2914 
Q 2772 3150 2772 3378 
Q 2772 3750 2511 3984 
Q 2250 4219 1831 4219 
Q 1534 4219 1204 4116 
Q 875 4013 500 3803 
L 500 4441 
Q 881 4594 1212 4672 
Q 1544 4750 1819 4750 
Q 2544 4750 2975 4387 
Q 3406 4025 3406 3419 
Q 3406 3131 3298 2873 
Q 3191 2616 2906 2266 
Q 2828 2175 2409 1742 
Q 1991 1309 1228 531 
z
" transform="scale(0.015625)"/>
       </defs>
       <use xlink:href="#DejaVuSans-15"/>
       <use xlink:href="#DejaVuSans-13" transform="translate(63.625 0)"/>
       <use xlink:href="#DejaVuSans-13" transform="translate(127.25 0)"/>
       <use xlink:href="#DejaVuSans-13" transform="translate(190.875 0)"/>
      </g>
     </g>
    </g>
    <g id="xtick_4">
     <g id="line2d_4">
      <g>
       <use xlink:href="#m60b8bbc285" x="423.170184" y="339.201094" style="fill: #66736e; stroke: #66736e; stroke-width: 0.8"/>
      </g>
     </g>
     <g id="text_4">
      <!-- 2010 -->
      <g style="fill: #66736e" transform="translate(412.990184 352.279219) scale(0.08 -0.08)">
       <use xlink:href="#DejaVuSans-15"/>
       <use xlink:href="#DejaVuSans-13" transform="translate(63.625 0)"/>
       <use xlink:href="#DejaVuSans-14" transform="translate(127.25 0)"/>
       <use xlink:href="#DejaVuSans-13" transform="translate(190.875 0)"/>
      </g>
     </g>
    </g>
    <g id="xtick_5">
     <g id="line2d_5">
      <g>
       <use xlink:href="#m60b8bbc285" x="519.393334" y="339.201094" style="fill: #66736e; stroke: #66736e; stroke-width: 0.8"/>
      </g>
     </g>
     <g id="text_5">
      <!-- 2020 -->
      <g style="fill: #66736e" transform="translate(509.213334 352.279219) scale(0.08 -0.08)">
       <use xlink:href="#DejaVuSans-15"/>
       <use xlink:href="#DejaVuSans-13" transform="translate(63.625 0)"/>
       <use xlink:href="#DejaVuSans-15" transform="translate(127.25 0)"/>
       <use xlink:href="#DejaVuSans-13" transform="translate(190.875 0)"/>
      </g>
     </g>
    </g>
    <g id="text_6">
     <!-- Year -->
     <g style="fill: #66736e" transform="translate(278.93043 365.038984) scale(0.09 -0.09)">
      <defs>
       <path id="DejaVuSans-3c" d="M -13 4666 
L 666 4666 
L 1959 2747 
L 3244 4666 
L 3922 4666 
L 2272 2222 
L 2272 0 
L 1638 0 
L 1638 2222 
L -13 4666 
z
" transform="scale(0.015625)"/>
       <path id="DejaVuSans-48" d="M 3597 1894 
L 3597 1613 
L 953 1613 
Q 991 1019 1311 708 
Q 1631 397 2203 397 
Q 2534 397 2845 478 
Q 3156 559 3463 722 
L 3463 178 
Q 3153 47 2828 -22 
Q 2503 -91 2169 -91 
Q 1331 -91 842 396 
Q 353 884 353 1716 
Q 353 2575 817 3079 
Q 1281 3584 2069 3584 
Q 2775 3584 3186 3129 
Q 3597 2675 3597 1894 
z
M 3022 2063 
Q 3016 2534 2758 2815 
Q 2500 3097 2075 3097 
Q 1594 3097 1305 2825 
Q 1016 2553 972 2059 
L 3022 2063 
z
" transform="scale(0.015625)"/>
       <path id="DejaVuSans-44" d="M 2194 1759 
Q 1497 1759 1228 1600 
Q 959 1441 959 1056 
Q 959 750 1161 570 
Q 1363 391 1709 391 
Q 2188 391 2477 730 
Q 2766 1069 2766 1631 
L 2766 1759 
L 2194 1759 
z
M 3341 1997 
L 3341 0 
L 2766 0 
L 2766 531 
Q 2569 213 2275 61 
Q 1981 -91 1556 -91 
Q 1019 -91 701 211 
Q 384 513 384 1019 
Q 384 1609 779 1909 
Q 1175 2209 1959 2209 
L 2766 2209 
L 2766 2266 
Q 2766 2663 2505 2880 
Q 2244 3097 1772 3097 
Q 1472 3097 1187 3025 
Q 903 2953 641 2809 
L 641 3341 
Q 956 3463 1253 3523 
Q 1550 3584 1831 3584 
Q 2591 3584 2966 3190 
Q 3341 2797 3341 1997 
z
" transform="scale(0.015625)"/>
       <path id="DejaVuSans-55" d="M 2631 2963 
Q 2534 3019 2420 3045 
Q 2306 3072 2169 3072 
Q 1681 3072 1420 2755 
Q 1159 2438 1159 1844 
L 1159 0 
L 581 0 
L 581 3500 
L 1159 3500 
L 1159 2956 
Q 1341 3275 1631 3429 
Q 1922 3584 2338 3584 
Q 2397 3584 2469 3576 
Q 2541 3569 2628 3553 
L 2631 2963 
z
" transform="scale(0.015625)"/>
      </defs>
      <use xlink:href="#DejaVuSans-3c"/>
      <use xlink:href="#DejaVuSans-48" transform="translate(47.796875 0)"/>
      <use xlink:href="#DejaVuSans-44" transform="translate(109.328125 0)"/>
      <use xlink:href="#DejaVuSans-55" transform="translate(170.609375 0)"/>
     </g>
    </g>
   </g>
   <g id="matplotlib.axis_2">
    <g id="ytick_1">
     <g id="line2d_6">
      <path d="M 45.013203 319.737746 
L 531.902344 319.737746 
" clip-path="url(#p026694e7cb)" style="fill: none; stroke: #dfe5e2; stroke-opacity: 0.8; stroke-width: 0.8; stroke-linecap: square"/>
     </g>
     <g id="line2d_7">
      <defs>
       <path id="mbca007c34c" d="M 0 0 
L -3.5 0 
" style="stroke: #66736e; stroke-width: 0.8"/>
      </defs>
      <g>
       <use xlink:href="#mbca007c34c" x="45.013203" y="319.737746" style="fill: #66736e; stroke: #66736e; stroke-width: 0.8"/>
      </g>
     </g>
     <g id="text_7">
      <!-- 5.0 -->
      <g style="fill: #66736e" transform="translate(25.290703 322.776808) scale(0.08 -0.08)">
       <defs>
        <path id="DejaVuSans-18" d="M 691 4666 
L 3169 4666 
L 3169 4134 
L 1269 4134 
L 1269 2991 
Q 1406 3038 1543 3061 
Q 1681 3084 1819 3084 
Q 2600 3084 3056 2656 
Q 3513 2228 3513 1497 
Q 3513 744 3044 326 
Q 2575 -91 1722 -91 
Q 1428 -91 1123 -41 
Q 819 9 494 109 
L 494 744 
Q 775 591 1075 516 
Q 1375 441 1709 441 
Q 2250 441 2565 725 
Q 2881 1009 2881 1497 
Q 2881 1984 2565 2268 
Q 2250 2553 1709 2553 
Q 1456 2553 1204 2497 
Q 953 2441 691 2322 
L 691 4666 
z
" transform="scale(0.015625)"/>
        <path id="DejaVuSans-11" d="M 684 794 
L 1344 794 
L 1344 0 
L 684 0 
L 684 794 
z
" transform="scale(0.015625)"/>
       </defs>
       <use xlink:href="#DejaVuSans-18"/>
       <use xlink:href="#DejaVuSans-11" transform="translate(63.625 0)"/>
       <use xlink:href="#DejaVuSans-13" transform="translate(95.40625 0)"/>
      </g>
     </g>
    </g>
    <g id="ytick_2">
     <g id="line2d_8">
      <path d="M 45.013203 282.322233 
L 531.902344 282.322233 
" clip-path="url(#p026694e7cb)" style="fill: none; stroke: #dfe5e2; stroke-opacity: 0.8; stroke-width: 0.8; stroke-linecap: square"/>
     </g>
     <g id="line2d_9">
      <g>
       <use xlink:href="#mbca007c34c" x="45.013203" y="282.322233" style="fill: #66736e; stroke: #66736e; stroke-width: 0.8"/>
      </g>
     </g>
     <g id="text_8">
      <!-- 7.5 -->
      <g style="fill: #66736e" transform="translate(25.290703 285.361296) scale(0.08 -0.08)">
       <defs>
        <path id="DejaVuSans-1a" d="M 525 4666 
L 3525 4666 
L 3525 4397 
L 1831 0 
L 1172 0 
L 2766 4134 
L 525 4134 
L 525 4666 
z
" transform="scale(0.015625)"/>
       </defs>
       <use xlink:href="#DejaVuSans-1a"/>
       <use xlink:href="#DejaVuSans-11" transform="translate(63.625 0)"/>
       <use xlink:href="#DejaVuSans-18" transform="translate(95.40625 0)"/>
      </g>
     </g>
    </g>
    <g id="ytick_3">
     <g id="line2d_10">
      <path d="M 45.013203 244.906721 
L 531.902344 244.906721 
" clip-path="url(#p026694e7cb)" style="fill: none; stroke: #dfe5e2; stroke-opacity: 0.8; stroke-width: 0.8; stroke-linecap: square"/>
     </g>
     <g id="line2d_11">
      <g>
       <use xlink:href="#mbca007c34c" x="45.013203" y="244.906721" style="fill: #66736e; stroke: #66736e; stroke-width: 0.8"/>
      </g>
     </g>
     <g id="text_9">
      <!-- 10.0 -->
      <g style="fill: #66736e" transform="translate(20.200703 247.945783) scale(0.08 -0.08)">
       <use xlink:href="#DejaVuSans-14"/>
       <use xlink:href="#DejaVuSans-13" transform="translate(63.625 0)"/>
       <use xlink:href="#DejaVuSans-11" transform="translate(127.25 0)"/>
       <use xlink:href="#DejaVuSans-13" transform="translate(159.03125 0)"/>
      </g>
     </g>
    </g>
    <g id="ytick_4">
     <g id="line2d_12">
      <path d="M 45.013203 207.491208 
L 531.902344 207.491208 
" clip-path="url(#p026694e7cb)" style="fill: none; stroke: #dfe5e2; stroke-opacity: 0.8; stroke-width: 0.8; stroke-linecap: square"/>
     </g>
     <g id="line2d_13">
      <g>
       <use xlink:href="#mbca007c34c" x="45.013203" y="207.491208" style="fill: #66736e; stroke: #66736e; stroke-width: 0.8"/>
      </g>
     </g>
     <g id="text_10">
      <!-- 12.5 -->
      <g style="fill: #66736e" transform="translate(20.200703 210.530271) scale(0.08 -0.08)">
       <use xlink:href="#DejaVuSans-14"/>
       <use xlink:href="#DejaVuSans-15" transform="translate(63.625 0)"/>
       <use xlink:href="#DejaVuSans-11" transform="translate(127.25 0)"/>
       <use xlink:href="#DejaVuSans-18" transform="translate(159.03125 0)"/>
      </g>
     </g>
    </g>
    <g id="ytick_5">
     <g id="line2d_14">
      <path d="M 45.013203 170.075696 
L 531.902344 170.075696 
" clip-path="url(#p026694e7cb)" style="fill: none; stroke: #dfe5e2; stroke-opacity: 0.8; stroke-width: 0.8; stroke-linecap: square"/>
     </g>
     <g id="line2d_15">
      <g>
       <use xlink:href="#mbca007c34c" x="45.013203" y="170.075696" style="fill: #66736e; stroke: #66736e; stroke-width: 0.8"/>
      </g>
     </g>
     <g id="text_11">
      <!-- 15.0 -->
      <g style="fill: #66736e" transform="translate(20.200703 173.114758) scale(0.08 -0.08)">
       <use xlink:href="#DejaVuSans-14"/>
       <use xlink:href="#DejaVuSans-18" transform="translate(63.625 0)"/>
       <use xlink:href="#DejaVuSans-11" transform="translate(127.25 0)"/>
       <use xlink:href="#DejaVuSans-13" transform="translate(159.03125 0)"/>
      </g>
     </g>
    </g>
    <g id="ytick_6">
     <g id="line2d_16">
      <path d="M 45.013203 132.660183 
L 531.902344 132.660183 
" clip-path="url(#p026694e7cb)" style="fill: none; stroke: #dfe5e2; stroke-opacity: 0.8; stroke-width: 0.8; stroke-linecap: square"/>
     </g>
     <g id="line2d_17">
      <g>
       <use xlink:href="#mbca007c34c" x="45.013203" y="132.660183" style="fill: #66736e; stroke: #66736e; stroke-width: 0.8"/>
      </g>
     </g>
     <g id="text_12">
      <!-- 17.5 -->
      <g style="fill: #66736e" transform="translate(20.200703 135.699246) scale(0.08 -0.08)">
       <use xlink:href="#DejaVuSans-14"/>
       <use xlink:href="#DejaVuSans-1a" transform="translate(63.625 0)"/>
       <use xlink:href="#DejaVuSans-11" transform="translate(127.25 0)"/>
       <use xlink:href="#DejaVuSans-18" transform="translate(159.03125 0)"/>
      </g>
     </g>
    </g>
    <g id="ytick_7">
     <g id="line2d_18">
      <path d="M 45.013203 95.244671 
L 531.902344 95.244671 
" clip-path="url(#p026694e7cb)" style="fill: none; stroke: #dfe5e2; stroke-opacity: 0.8; stroke-width: 0.8; stroke-linecap: square"/>
     </g>
     <g id="line2d_19">
      <g>
       <use xlink:href="#mbca007c34c" x="45.013203" y="95.244671" style="fill: #66736e; stroke: #66736e; stroke-width: 0.8"/>
      </g>
     </g>
     <g id="text_13">
      <!-- 20.0 -->
      <g style="fill: #66736e" transform="translate(20.200703 98.283733) scale(0.08 -0.08)">
       <use xlink:href="#DejaVuSans-15"/>
       <use xlink:href="#DejaVuSans-13" transform="translate(63.625 0)"/>
       <use xlink:href="#DejaVuSans-11" transform="translate(127.25 0)"/>
       <use xlink:href="#DejaVuSans-13" transform="translate(159.03125 0)"/>
      </g>
     </g>
    </g>
    <g id="ytick_8">
     <g id="line2d_20">
      <path d="M 45.013203 57.829159 
L 531.902344 57.829159 
" clip-path="url(#p026694e7cb)" style="fill: none; stroke: #dfe5e2; stroke-opacity: 0.8; stroke-width: 0.8; stroke-linecap: square"/>
     </g>
     <g id="line2d_21">
      <g>
       <use xlink:href="#mbca007c34c" x="45.013203" y="57.829159" style="fill: #66736e; stroke: #66736e; stroke-width: 0.8"/>
      </g>
     </g>
     <g id="text_14">
      <!-- 22.5 -->
      <g style="fill: #66736e" transform="translate(20.200703 60.868221) scale(0.08 -0.08)">
       <use xlink:href="#DejaVuSans-15"/>
       <use xlink:href="#DejaVuSans-15" transform="translate(63.625 0)"/>
       <use xlink:href="#DejaVuSans-11" transform="translate(127.25 0)"/>
       <use xlink:href="#DejaVuSans-18" transform="translate(159.03125 0)"/>
      </g>
     </g>
    </g>
    <g id="text_15">
     <!-- percent of GDP -->
     <g style="fill: #66736e" transform="translate(14.038594 229.618203) rotate(-90) scale(0.09 -0.09)">
      <defs>
       <path id="DejaVuSans-53" d="M 1159 525 
L 1159 -1331 
L 581 -1331 
L 581 3500 
L 1159 3500 
L 1159 2969 
Q 1341 3281 1617 3432 
Q 1894 3584 2278 3584 
Q 2916 3584 3314 3078 
Q 3713 2572 3713 1747 
Q 3713 922 3314 415 
Q 2916 -91 2278 -91 
Q 1894 -91 1617 61 
Q 1341 213 1159 525 
z
M 3116 1747 
Q 3116 2381 2855 2742 
Q 2594 3103 2138 3103 
Q 1681 3103 1420 2742 
Q 1159 2381 1159 1747 
Q 1159 1113 1420 752 
Q 1681 391 2138 391 
Q 2594 391 2855 752 
Q 3116 1113 3116 1747 
z
" transform="scale(0.015625)"/>
       <path id="DejaVuSans-46" d="M 3122 3366 
L 3122 2828 
Q 2878 2963 2633 3030 
Q 2388 3097 2138 3097 
Q 1578 3097 1268 2742 
Q 959 2388 959 1747 
Q 959 1106 1268 751 
Q 1578 397 2138 397 
Q 2388 397 2633 464 
Q 2878 531 3122 666 
L 3122 134 
Q 2881 22 2623 -34 
Q 2366 -91 2075 -91 
Q 1284 -91 818 406 
Q 353 903 353 1747 
Q 353 2603 823 3093 
Q 1294 3584 2113 3584 
Q 2378 3584 2631 3529 
Q 2884 3475 3122 3366 
z
" transform="scale(0.015625)"/>
       <path id="DejaVuSans-51" d="M 3513 2113 
L 3513 0 
L 2938 0 
L 2938 2094 
Q 2938 2591 2744 2837 
Q 2550 3084 2163 3084 
Q 1697 3084 1428 2787 
Q 1159 2491 1159 1978 
L 1159 0 
L 581 0 
L 581 3500 
L 1159 3500 
L 1159 2956 
Q 1366 3272 1645 3428 
Q 1925 3584 2291 3584 
Q 2894 3584 3203 3211 
Q 3513 2838 3513 2113 
z
" transform="scale(0.015625)"/>
       <path id="DejaVuSans-57" d="M 1172 4494 
L 1172 3500 
L 2356 3500 
L 2356 3053 
L 1172 3053 
L 1172 1153 
Q 1172 725 1289 603 
Q 1406 481 1766 481 
L 2356 481 
L 2356 0 
L 1766 0 
Q 1100 0 847 248 
Q 594 497 594 1153 
L 594 3053 
L 172 3053 
L 172 3500 
L 594 3500 
L 594 4494 
L 1172 4494 
z
" transform="scale(0.015625)"/>
       <path id="DejaVuSans-3" transform="scale(0.015625)"/>
       <path id="DejaVuSans-52" d="M 1959 3097 
Q 1497 3097 1228 2736 
Q 959 2375 959 1747 
Q 959 1119 1226 758 
Q 1494 397 1959 397 
Q 2419 397 2687 759 
Q 2956 1122 2956 1747 
Q 2956 2369 2687 2733 
Q 2419 3097 1959 3097 
z
M 1959 3584 
Q 2709 3584 3137 3096 
Q 3566 2609 3566 1747 
Q 3566 888 3137 398 
Q 2709 -91 1959 -91 
Q 1206 -91 779 398 
Q 353 888 353 1747 
Q 353 2609 779 3096 
Q 1206 3584 1959 3584 
z
" transform="scale(0.015625)"/>
       <path id="DejaVuSans-49" d="M 2375 4863 
L 2375 4384 
L 1825 4384 
Q 1516 4384 1395 4259 
Q 1275 4134 1275 3809 
L 1275 3500 
L 2222 3500 
L 2222 3053 
L 1275 3053 
L 1275 0 
L 697 0 
L 697 3053 
L 147 3053 
L 147 3500 
L 697 3500 
L 697 3744 
Q 697 4328 969 4595 
Q 1241 4863 1831 4863 
L 2375 4863 
z
" transform="scale(0.015625)"/>
       <path id="DejaVuSans-2a" d="M 3809 666 
L 3809 1919 
L 2778 1919 
L 2778 2438 
L 4434 2438 
L 4434 434 
Q 4069 175 3628 42 
Q 3188 -91 2688 -91 
Q 1594 -91 976 548 
Q 359 1188 359 2328 
Q 359 3472 976 4111 
Q 1594 4750 2688 4750 
Q 3144 4750 3555 4637 
Q 3966 4525 4313 4306 
L 4313 3634 
Q 3963 3931 3569 4081 
Q 3175 4231 2741 4231 
Q 1884 4231 1454 3753 
Q 1025 3275 1025 2328 
Q 1025 1384 1454 906 
Q 1884 428 2741 428 
Q 3075 428 3337 486 
Q 3600 544 3809 666 
z
" transform="scale(0.015625)"/>
       <path id="DejaVuSans-27" d="M 1259 4147 
L 1259 519 
L 2022 519 
Q 2988 519 3436 956 
Q 3884 1394 3884 2338 
Q 3884 3275 3436 3711 
Q 2988 4147 2022 4147 
L 1259 4147 
z
M 628 4666 
L 1925 4666 
Q 3281 4666 3915 4102 
Q 4550 3538 4550 2338 
Q 4550 1131 3912 565 
Q 3275 0 1925 0 
L 628 0 
L 628 4666 
z
" transform="scale(0.015625)"/>
       <path id="DejaVuSans-33" d="M 1259 4147 
L 1259 2394 
L 2053 2394 
Q 2494 2394 2734 2622 
Q 2975 2850 2975 3272 
Q 2975 3691 2734 3919 
Q 2494 4147 2053 4147 
L 1259 4147 
z
M 628 4666 
L 2053 4666 
Q 2838 4666 3239 4311 
Q 3641 3956 3641 3272 
Q 3641 2581 3239 2228 
Q 2838 1875 2053 1875 
L 1259 1875 
L 1259 0 
L 628 0 
L 628 4666 
z
" transform="scale(0.015625)"/>
      </defs>
      <use xlink:href="#DejaVuSans-53"/>
      <use xlink:href="#DejaVuSans-48" transform="translate(63.484375 0)"/>
      <use xlink:href="#DejaVuSans-55" transform="translate(125.015625 0)"/>
      <use xlink:href="#DejaVuSans-46" transform="translate(163.921875 0)"/>
      <use xlink:href="#DejaVuSans-48" transform="translate(218.90625 0)"/>
      <use xlink:href="#DejaVuSans-51" transform="translate(280.4375 0)"/>
      <use xlink:href="#DejaVuSans-57" transform="translate(343.8125 0)"/>
      <use xlink:href="#DejaVuSans-3" transform="translate(383.015625 0)"/>
      <use xlink:href="#DejaVuSans-52" transform="translate(414.796875 0)"/>
      <use xlink:href="#DejaVuSans-49" transform="translate(475.984375 0)"/>
      <use xlink:href="#DejaVuSans-3" transform="translate(511.1875 0)"/>
      <use xlink:href="#DejaVuSans-2a" transform="translate(542.96875 0)"/>
      <use xlink:href="#DejaVuSans-27" transform="translate(620.453125 0)"/>
      <use xlink:href="#DejaVuSans-33" transform="translate(697.453125 0)"/>
     </g>
    </g>
   </g>
   <g id="patch_3">
    <path d="M 45.013203 339.201094 
L 45.013203 51.837812 
" style="fill: none; stroke: #dfe5e2; stroke-width: 0.8; stroke-linejoin: miter; stroke-linecap: square"/>
   </g>
   <g id="patch_4">
    <path d="M 45.013203 339.201094 
L 531.902344 339.201094 
" style="fill: none; stroke: #dfe5e2; stroke-width: 0.8; stroke-linejoin: miter; stroke-linecap: square"/>
   </g>
   <g id="line2d_22">
    <path d="M 67.144528 209.515824 
L 76.766843 246.755357 
L 86.389158 256.362304 
L 96.011473 215.915055 
L 105.633788 179.105545 
L 115.256103 170.875779 
L 124.878418 153.681201 
L 134.500733 155.359118 
L 144.123048 139.7803 
L 153.745363 156.604485 
L 163.367678 165.132813 
L 172.989993 178.468129 
L 182.612308 190.961656 
L 192.234623 209.126571 
L 201.856938 237.800293 
L 211.479253 268.075567 
L 221.101568 277.59165 
L 230.723883 237.97371 
L 240.346198 255.620399 
L 249.968513 278.023123 
L 259.590828 286.031597 
L 269.213143 295.07351 
L 278.835458 299.093565 
L 288.457773 292.079803 
L 298.080088 279.750359 
L 307.702404 286.73481 
L 317.324719 310.740202 
L 326.947034 315.977114 
L 336.569349 326.139126 
L 346.191664 320.3347 
L 355.813979 320.071299 
L 365.436294 297.755998 
L 375.058609 294.781852 
L 442.414814 99.723306 
L 452.037129 95.039711 
L 461.659444 64.89978 
L 471.281759 117.598233 
L 480.904074 143.288647 
L 490.526389 155.330199 
L 500.148704 289.61064 
L 509.771019 179.217111 
" clip-path="url(#p026694e7cb)" style="fill: none; stroke: #1f5f78; stroke-width: 2.8; stroke-linecap: square"/>
    <defs>
     <path id="mc7fc03361e" d="M 0 1.75 
C 0.464105 1.75 0.909265 1.565609 1.237437 1.237437 
C 1.565609 0.909265 1.75 0.464105 1.75 0 
C 1.75 -0.464105 1.565609 -0.909265 1.237437 -1.237437 
C 0.909265 -1.565609 0.464105 -1.75 0 -1.75 
C -0.464105 -1.75 -0.909265 -1.565609 -1.237437 -1.237437 
C -1.565609 -0.909265 -1.75 -0.464105 -1.75 0 
C -1.75 0.464105 -1.565609 0.909265 -1.237437 1.237437 
C -0.909265 1.565609 -0.464105 1.75 0 1.75 
z
" style="stroke: #1f5f78"/>
    </defs>
    <g clip-path="url(#p026694e7cb)">
     <use xlink:href="#mc7fc03361e" x="67.144528" y="209.515824" style="fill: #1f5f78; stroke: #1f5f78"/>
     <use xlink:href="#mc7fc03361e" x="76.766843" y="246.755357" style="fill: #1f5f78; stroke: #1f5f78"/>
     <use xlink:href="#mc7fc03361e" x="86.389158" y="256.362304" style="fill: #1f5f78; stroke: #1f5f78"/>
     <use xlink:href="#mc7fc03361e" x="96.011473" y="215.915055" style="fill: #1f5f78; stroke: #1f5f78"/>
     <use xlink:href="#mc7fc03361e" x="105.633788" y="179.105545" style="fill: #1f5f78; stroke: #1f5f78"/>
     <use xlink:href="#mc7fc03361e" x="115.256103" y="170.875779" style="fill: #1f5f78; stroke: #1f5f78"/>
     <use xlink:href="#mc7fc03361e" x="124.878418" y="153.681201" style="fill: #1f5f78; stroke: #1f5f78"/>
     <use xlink:href="#mc7fc03361e" x="134.500733" y="155.359118" style="fill: #1f5f78; stroke: #1f5f78"/>
     <use xlink:href="#mc7fc03361e" x="144.123048" y="139.7803" style="fill: #1f5f78; stroke: #1f5f78"/>
     <use xlink:href="#mc7fc03361e" x="153.745363" y="156.604485" style="fill: #1f5f78; stroke: #1f5f78"/>
     <use xlink:href="#mc7fc03361e" x="163.367678" y="165.132813" style="fill: #1f5f78; stroke: #1f5f78"/>
     <use xlink:href="#mc7fc03361e" x="172.989993" y="178.468129" style="fill: #1f5f78; stroke: #1f5f78"/>
     <use xlink:href="#mc7fc03361e" x="182.612308" y="190.961656" style="fill: #1f5f78; stroke: #1f5f78"/>
     <use xlink:href="#mc7fc03361e" x="192.234623" y="209.126571" style="fill: #1f5f78; stroke: #1f5f78"/>
     <use xlink:href="#mc7fc03361e" x="201.856938" y="237.800293" style="fill: #1f5f78; stroke: #1f5f78"/>
     <use xlink:href="#mc7fc03361e" x="211.479253" y="268.075567" style="fill: #1f5f78; stroke: #1f5f78"/>
     <use xlink:href="#mc7fc03361e" x="221.101568" y="277.59165" style="fill: #1f5f78; stroke: #1f5f78"/>
     <use xlink:href="#mc7fc03361e" x="230.723883" y="237.97371" style="fill: #1f5f78; stroke: #1f5f78"/>
     <use xlink:href="#mc7fc03361e" x="240.346198" y="255.620399" style="fill: #1f5f78; stroke: #1f5f78"/>
     <use xlink:href="#mc7fc03361e" x="249.968513" y="278.023123" style="fill: #1f5f78; stroke: #1f5f78"/>
     <use xlink:href="#mc7fc03361e" x="259.590828" y="286.031597" style="fill: #1f5f78; stroke: #1f5f78"/>
     <use xlink:href="#mc7fc03361e" x="269.213143" y="295.07351" style="fill: #1f5f78; stroke: #1f5f78"/>
     <use xlink:href="#mc7fc03361e" x="278.835458" y="299.093565" style="fill: #1f5f78; stroke: #1f5f78"/>
     <use xlink:href="#mc7fc03361e" x="288.457773" y="292.079803" style="fill: #1f5f78; stroke: #1f5f78"/>
     <use xlink:href="#mc7fc03361e" x="298.080088" y="279.750359" style="fill: #1f5f78; stroke: #1f5f78"/>
     <use xlink:href="#mc7fc03361e" x="307.702404" y="286.73481" style="fill: #1f5f78; stroke: #1f5f78"/>
     <use xlink:href="#mc7fc03361e" x="317.324719" y="310.740202" style="fill: #1f5f78; stroke: #1f5f78"/>
     <use xlink:href="#mc7fc03361e" x="326.947034" y="315.977114" style="fill: #1f5f78; stroke: #1f5f78"/>
     <use xlink:href="#mc7fc03361e" x="336.569349" y="326.139126" style="fill: #1f5f78; stroke: #1f5f78"/>
     <use xlink:href="#mc7fc03361e" x="346.191664" y="320.3347" style="fill: #1f5f78; stroke: #1f5f78"/>
     <use xlink:href="#mc7fc03361e" x="355.813979" y="320.071299" style="fill: #1f5f78; stroke: #1f5f78"/>
     <use xlink:href="#mc7fc03361e" x="365.436294" y="297.755998" style="fill: #1f5f78; stroke: #1f5f78"/>
     <use xlink:href="#mc7fc03361e" x="375.058609" y="294.781852" style="fill: #1f5f78; stroke: #1f5f78"/>
     <use xlink:href="#mc7fc03361e" x="442.414814" y="99.723306" style="fill: #1f5f78; stroke: #1f5f78"/>
     <use xlink:href="#mc7fc03361e" x="452.037129" y="95.039711" style="fill: #1f5f78; stroke: #1f5f78"/>
     <use xlink:href="#mc7fc03361e" x="461.659444" y="64.89978" style="fill: #1f5f78; stroke: #1f5f78"/>
     <use xlink:href="#mc7fc03361e" x="471.281759" y="117.598233" style="fill: #1f5f78; stroke: #1f5f78"/>
     <use xlink:href="#mc7fc03361e" x="480.904074" y="143.288647" style="fill: #1f5f78; stroke: #1f5f78"/>
     <use xlink:href="#mc7fc03361e" x="490.526389" y="155.330199" style="fill: #1f5f78; stroke: #1f5f78"/>
     <use xlink:href="#mc7fc03361e" x="500.148704" y="289.61064" style="fill: #1f5f78; stroke: #1f5f78"/>
     <use xlink:href="#mc7fc03361e" x="509.771019" y="179.217111" style="fill: #1f5f78; stroke: #1f5f78"/>
    </g>
   </g>
   <g id="text_16">
    <!-- percent of GDP; annual observations; focal country highlighted; World Bank WDI; central-government coverage; latest archived observation 2019 -->
    <g style="fill: #66736e" transform="translate(45.013203 45.365254) scale(0.09 -0.09)">
     <defs>
      <path id="DejaVuSans-1e" d="M 750 3309 
L 1409 3309 
L 1409 2516 
L 750 2516 
L 750 3309 
z
M 750 794 
L 1409 794 
L 1409 256 
L 897 -744 
L 494 -744 
L 750 256 
L 750 794 
z
" transform="scale(0.015625)"/>
      <path id="DejaVuSans-58" d="M 544 1381 
L 544 3500 
L 1119 3500 
L 1119 1403 
Q 1119 906 1312 657 
Q 1506 409 1894 409 
Q 2359 409 2629 706 
Q 2900 1003 2900 1516 
L 2900 3500 
L 3475 3500 
L 3475 0 
L 2900 0 
L 2900 538 
Q 2691 219 2414 64 
Q 2138 -91 1772 -91 
Q 1169 -91 856 284 
Q 544 659 544 1381 
z
M 1991 3584 
L 1991 3584 
z
" transform="scale(0.015625)"/>
      <path id="DejaVuSans-4f" d="M 603 4863 
L 1178 4863 
L 1178 0 
L 603 0 
L 603 4863 
z
" transform="scale(0.015625)"/>
      <path id="DejaVuSans-45" d="M 3116 1747 
Q 3116 2381 2855 2742 
Q 2594 3103 2138 3103 
Q 1681 3103 1420 2742 
Q 1159 2381 1159 1747 
Q 1159 1113 1420 752 
Q 1681 391 2138 391 
Q 2594 391 2855 752 
Q 3116 1113 3116 1747 
z
M 1159 2969 
Q 1341 3281 1617 3432 
Q 1894 3584 2278 3584 
Q 2916 3584 3314 3078 
Q 3713 2572 3713 1747 
Q 3713 922 3314 415 
Q 2916 -91 2278 -91 
Q 1894 -91 1617 61 
Q 1341 213 1159 525 
L 1159 0 
L 581 0 
L 581 4863 
L 1159 4863 
L 1159 2969 
z
" transform="scale(0.015625)"/>
      <path id="DejaVuSans-56" d="M 2834 3397 
L 2834 2853 
Q 2591 2978 2328 3040 
Q 2066 3103 1784 3103 
Q 1356 3103 1142 2972 
Q 928 2841 928 2578 
Q 928 2378 1081 2264 
Q 1234 2150 1697 2047 
L 1894 2003 
Q 2506 1872 2764 1633 
Q 3022 1394 3022 966 
Q 3022 478 2636 193 
Q 2250 -91 1575 -91 
Q 1294 -91 989 -36 
Q 684 19 347 128 
L 347 722 
Q 666 556 975 473 
Q 1284 391 1588 391 
Q 1994 391 2212 530 
Q 2431 669 2431 922 
Q 2431 1156 2273 1281 
Q 2116 1406 1581 1522 
L 1381 1569 
Q 847 1681 609 1914 
Q 372 2147 372 2553 
Q 372 3047 722 3315 
Q 1072 3584 1716 3584 
Q 2034 3584 2315 3537 
Q 2597 3491 2834 3397 
z
" transform="scale(0.015625)"/>
      <path id="DejaVuSans-59" d="M 191 3500 
L 800 3500 
L 1894 563 
L 2988 3500 
L 3597 3500 
L 2284 0 
L 1503 0 
L 191 3500 
z
" transform="scale(0.015625)"/>
      <path id="DejaVuSans-4c" d="M 603 3500 
L 1178 3500 
L 1178 0 
L 603 0 
L 603 3500 
z
M 603 4863 
L 1178 4863 
L 1178 4134 
L 603 4134 
L 603 4863 
z
" transform="scale(0.015625)"/>
      <path id="DejaVuSans-5c" d="M 2059 -325 
Q 1816 -950 1584 -1140 
Q 1353 -1331 966 -1331 
L 506 -1331 
L 506 -850 
L 844 -850 
Q 1081 -850 1212 -737 
Q 1344 -625 1503 -206 
L 1606 56 
L 191 3500 
L 800 3500 
L 1894 763 
L 2988 3500 
L 3597 3500 
L 2059 -325 
z
" transform="scale(0.015625)"/>
      <path id="DejaVuSans-4b" d="M 3513 2113 
L 3513 0 
L 2938 0 
L 2938 2094 
Q 2938 2591 2744 2837 
Q 2550 3084 2163 3084 
Q 1697 3084 1428 2787 
Q 1159 2491 1159 1978 
L 1159 0 
L 581 0 
L 581 4863 
L 1159 4863 
L 1159 2956 
Q 1366 3272 1645 3428 
Q 1925 3584 2291 3584 
Q 2894 3584 3203 3211 
Q 3513 2838 3513 2113 
z
" transform="scale(0.015625)"/>
      <path id="DejaVuSans-4a" d="M 2906 1791 
Q 2906 2416 2648 2759 
Q 2391 3103 1925 3103 
Q 1463 3103 1205 2759 
Q 947 2416 947 1791 
Q 947 1169 1205 825 
Q 1463 481 1925 481 
Q 2391 481 2648 825 
Q 2906 1169 2906 1791 
z
M 3481 434 
Q 3481 -459 3084 -895 
Q 2688 -1331 1869 -1331 
Q 1566 -1331 1297 -1286 
Q 1028 -1241 775 -1147 
L 775 -588 
Q 1028 -725 1275 -790 
Q 1522 -856 1778 -856 
Q 2344 -856 2625 -561 
Q 2906 -266 2906 331 
L 2906 616 
Q 2728 306 2450 153 
Q 2172 0 1784 0 
Q 1141 0 747 490 
Q 353 981 353 1791 
Q 353 2603 747 3093 
Q 1141 3584 1784 3584 
Q 2172 3584 2450 3431 
Q 2728 3278 2906 2969 
L 2906 3500 
L 3481 3500 
L 3481 434 
z
" transform="scale(0.015625)"/>
      <path id="DejaVuSans-47" d="M 2906 2969 
L 2906 4863 
L 3481 4863 
L 3481 0 
L 2906 0 
L 2906 525 
Q 2725 213 2448 61 
Q 2172 -91 1784 -91 
Q 1150 -91 751 415 
Q 353 922 353 1747 
Q 353 2572 751 3078 
Q 1150 3584 1784 3584 
Q 2172 3584 2448 3432 
Q 2725 3281 2906 2969 
z
M 947 1747 
Q 947 1113 1208 752 
Q 1469 391 1925 391 
Q 2381 391 2643 752 
Q 2906 1113 2906 1747 
Q 2906 2381 2643 2742 
Q 2381 3103 1925 3103 
Q 1469 3103 1208 2742 
Q 947 2381 947 1747 
z
" transform="scale(0.015625)"/>
      <path id="DejaVuSans-3a" d="M 213 4666 
L 850 4666 
L 1831 722 
L 2809 4666 
L 3519 4666 
L 4500 722 
L 5478 4666 
L 6119 4666 
L 4947 0 
L 4153 0 
L 3169 4050 
L 2175 0 
L 1381 0 
L 213 4666 
z
" transform="scale(0.015625)"/>
      <path id="DejaVuSans-25" d="M 1259 2228 
L 1259 519 
L 2272 519 
Q 2781 519 3026 730 
Q 3272 941 3272 1375 
Q 3272 1813 3026 2020 
Q 2781 2228 2272 2228 
L 1259 2228 
z
M 1259 4147 
L 1259 2741 
L 2194 2741 
Q 2656 2741 2882 2914 
Q 3109 3088 3109 3444 
Q 3109 3797 2882 3972 
Q 2656 4147 2194 4147 
L 1259 4147 
z
M 628 4666 
L 2241 4666 
Q 2963 4666 3353 4366 
Q 3744 4066 3744 3513 
Q 3744 3084 3544 2831 
Q 3344 2578 2956 2516 
Q 3422 2416 3680 2098 
Q 3938 1781 3938 1306 
Q 3938 681 3513 340 
Q 3088 0 2303 0 
L 628 0 
L 628 4666 
z
" transform="scale(0.015625)"/>
      <path id="DejaVuSans-4e" d="M 581 4863 
L 1159 4863 
L 1159 1991 
L 2875 3500 
L 3609 3500 
L 1753 1863 
L 3688 0 
L 2938 0 
L 1159 1709 
L 1159 0 
L 581 0 
L 581 4863 
z
" transform="scale(0.015625)"/>
      <path id="DejaVuSans-2c" d="M 628 4666 
L 1259 4666 
L 1259 0 
L 628 0 
L 628 4666 
z
" transform="scale(0.015625)"/>
      <path id="DejaVuSans-10" d="M 313 2009 
L 1997 2009 
L 1997 1497 
L 313 1497 
L 313 2009 
z
" transform="scale(0.015625)"/>
      <path id="DejaVuSans-50" d="M 3328 2828 
Q 3544 3216 3844 3400 
Q 4144 3584 4550 3584 
Q 5097 3584 5394 3201 
Q 5691 2819 5691 2113 
L 5691 0 
L 5113 0 
L 5113 2094 
Q 5113 2597 4934 2840 
Q 4756 3084 4391 3084 
Q 3944 3084 3684 2787 
Q 3425 2491 3425 1978 
L 3425 0 
L 2847 0 
L 2847 2094 
Q 2847 2600 2669 2842 
Q 2491 3084 2119 3084 
Q 1678 3084 1418 2786 
Q 1159 2488 1159 1978 
L 1159 0 
L 581 0 
L 581 3500 
L 1159 3500 
L 1159 2956 
Q 1356 3278 1631 3431 
Q 1906 3584 2284 3584 
Q 2666 3584 2933 3390 
Q 3200 3197 3328 2828 
z
" transform="scale(0.015625)"/>
     </defs>
     <use xlink:href="#DejaVuSans-53"/>
     <use xlink:href="#DejaVuSans-48" transform="translate(63.484375 0)"/>
     <use xlink:href="#DejaVuSans-55" transform="translate(125.015625 0)"/>
     <use xlink:href="#DejaVuSans-46" transform="translate(163.921875 0)"/>
     <use xlink:href="#DejaVuSans-48" transform="translate(218.90625 0)"/>
     <use xlink:href="#DejaVuSans-51" transform="translate(280.4375 0)"/>
     <use xlink:href="#DejaVuSans-57" transform="translate(343.8125 0)"/>
     <use xlink:href="#DejaVuSans-3" transform="translate(383.015625 0)"/>
     <use xlink:href="#DejaVuSans-52" transform="translate(414.796875 0)"/>
     <use xlink:href="#DejaVuSans-49" transform="translate(475.984375 0)"/>
     <use xlink:href="#DejaVuSans-3" transform="translate(511.1875 0)"/>
     <use xlink:href="#DejaVuSans-2a" transform="translate(542.96875 0)"/>
     <use xlink:href="#DejaVuSans-27" transform="translate(620.453125 0)"/>
     <use xlink:href="#DejaVuSans-33" transform="translate(697.453125 0)"/>
     <use xlink:href="#DejaVuSans-1e" transform="translate(757.75 0)"/>
     <use xlink:href="#DejaVuSans-3" transform="translate(791.4375 0)"/>
     <use xlink:href="#DejaVuSans-44" transform="translate(823.21875 0)"/>
     <use xlink:href="#DejaVuSans-51" transform="translate(884.5 0)"/>
     <use xlink:href="#DejaVuSans-51" transform="translate(947.875 0)"/>
     <use xlink:href="#DejaVuSans-58" transform="translate(1011.25 0)"/>
     <use xlink:href="#DejaVuSans-44" transform="translate(1074.625 0)"/>
     <use xlink:href="#DejaVuSans-4f" transform="translate(1135.90625 0)"/>
     <use xlink:href="#DejaVuSans-3" transform="translate(1163.6875 0)"/>
     <use xlink:href="#DejaVuSans-52" transform="translate(1195.46875 0)"/>
     <use xlink:href="#DejaVuSans-45" transform="translate(1256.65625 0)"/>
     <use xlink:href="#DejaVuSans-56" transform="translate(1320.140625 0)"/>
     <use xlink:href="#DejaVuSans-48" transform="translate(1372.234375 0)"/>
     <use xlink:href="#DejaVuSans-55" transform="translate(1433.765625 0)"/>
     <use xlink:href="#DejaVuSans-59" transform="translate(1474.875 0)"/>
     <use xlink:href="#DejaVuSans-44" transform="translate(1534.0625 0)"/>
     <use xlink:href="#DejaVuSans-57" transform="translate(1595.34375 0)"/>
     <use xlink:href="#DejaVuSans-4c" transform="translate(1634.546875 0)"/>
     <use xlink:href="#DejaVuSans-52" transform="translate(1662.328125 0)"/>
     <use xlink:href="#DejaVuSans-51" transform="translate(1723.515625 0)"/>
     <use xlink:href="#DejaVuSans-56" transform="translate(1786.890625 0)"/>
     <use xlink:href="#DejaVuSans-1e" transform="translate(1838.984375 0)"/>
     <use xlink:href="#DejaVuSans-3" transform="translate(1872.671875 0)"/>
     <use xlink:href="#DejaVuSans-49" transform="translate(1904.453125 0)"/>
     <use xlink:href="#DejaVuSans-52" transform="translate(1939.65625 0)"/>
     <use xlink:href="#DejaVuSans-46" transform="translate(2000.84375 0)"/>
     <use xlink:href="#DejaVuSans-44" transform="translate(2055.828125 0)"/>
     <use xlink:href="#DejaVuSans-4f" transform="translate(2117.109375 0)"/>
     <use xlink:href="#DejaVuSans-3" transform="translate(2144.890625 0)"/>
     <use xlink:href="#DejaVuSans-46" transform="translate(2176.671875 0)"/>
     <use xlink:href="#DejaVuSans-52" transform="translate(2231.65625 0)"/>
     <use xlink:href="#DejaVuSans-58" transform="translate(2292.84375 0)"/>
     <use xlink:href="#DejaVuSans-51" transform="translate(2356.21875 0)"/>
     <use xlink:href="#DejaVuSans-57" transform="translate(2419.59375 0)"/>
     <use xlink:href="#DejaVuSans-55" transform="translate(2458.796875 0)"/>
     <use xlink:href="#DejaVuSans-5c" transform="translate(2499.90625 0)"/>
     <use xlink:href="#DejaVuSans-3" transform="translate(2559.09375 0)"/>
     <use xlink:href="#DejaVuSans-4b" transform="translate(2590.875 0)"/>
     <use xlink:href="#DejaVuSans-4c" transform="translate(2654.25 0)"/>
     <use xlink:href="#DejaVuSans-4a" transform="translate(2682.03125 0)"/>
     <use xlink:href="#DejaVuSans-4b" transform="translate(2745.515625 0)"/>
     <use xlink:href="#DejaVuSans-4f" transform="translate(2808.890625 0)"/>
     <use xlink:href="#DejaVuSans-4c" transform="translate(2836.671875 0)"/>
     <use xlink:href="#DejaVuSans-4a" transform="translate(2864.453125 0)"/>
     <use xlink:href="#DejaVuSans-4b" transform="translate(2927.9375 0)"/>
     <use xlink:href="#DejaVuSans-57" transform="translate(2991.3125 0)"/>
     <use xlink:href="#DejaVuSans-48" transform="translate(3030.515625 0)"/>
     <use xlink:href="#DejaVuSans-47" transform="translate(3092.046875 0)"/>
     <use xlink:href="#DejaVuSans-1e" transform="translate(3155.53125 0)"/>
     <use xlink:href="#DejaVuSans-3" transform="translate(3189.21875 0)"/>
     <use xlink:href="#DejaVuSans-3a" transform="translate(3221 0)"/>
     <use xlink:href="#DejaVuSans-52" transform="translate(3314.015625 0)"/>
     <use xlink:href="#DejaVuSans-55" transform="translate(3375.203125 0)"/>
     <use xlink:href="#DejaVuSans-4f" transform="translate(3416.3125 0)"/>
     <use xlink:href="#DejaVuSans-47" transform="translate(3444.09375 0)"/>
     <use xlink:href="#DejaVuSans-3" transform="translate(3507.578125 0)"/>
     <use xlink:href="#DejaVuSans-25" transform="translate(3539.359375 0)"/>
     <use xlink:href="#DejaVuSans-44" transform="translate(3607.96875 0)"/>
     <use xlink:href="#DejaVuSans-51" transform="translate(3669.25 0)"/>
     <use xlink:href="#DejaVuSans-4e" transform="translate(3732.625 0)"/>
     <use xlink:href="#DejaVuSans-3" transform="translate(3790.53125 0)"/>
     <use xlink:href="#DejaVuSans-3a" transform="translate(3822.3125 0)"/>
     <use xlink:href="#DejaVuSans-27" transform="translate(3921.1875 0)"/>
     <use xlink:href="#DejaVuSans-2c" transform="translate(3998.1875 0)"/>
     <use xlink:href="#DejaVuSans-1e" transform="translate(4027.6875 0)"/>
     <use xlink:href="#DejaVuSans-3" transform="translate(4061.375 0)"/>
     <use xlink:href="#DejaVuSans-46" transform="translate(4093.15625 0)"/>
     <use xlink:href="#DejaVuSans-48" transform="translate(4148.140625 0)"/>
     <use xlink:href="#DejaVuSans-51" transform="translate(4209.671875 0)"/>
     <use xlink:href="#DejaVuSans-57" transform="translate(4273.046875 0)"/>
     <use xlink:href="#DejaVuSans-55" transform="translate(4312.25 0)"/>
     <use xlink:href="#DejaVuSans-44" transform="translate(4353.359375 0)"/>
     <use xlink:href="#DejaVuSans-4f" transform="translate(4414.640625 0)"/>
     <use xlink:href="#DejaVuSans-10" transform="translate(4442.421875 0)"/>
     <use xlink:href="#DejaVuSans-4a" transform="translate(4478.5 0)"/>
     <use xlink:href="#DejaVuSans-52" transform="translate(4541.984375 0)"/>
     <use xlink:href="#DejaVuSans-59" transform="translate(4603.171875 0)"/>
     <use xlink:href="#DejaVuSans-48" transform="translate(4662.359375 0)"/>
     <use xlink:href="#DejaVuSans-55" transform="translate(4723.890625 0)"/>
     <use xlink:href="#DejaVuSans-51" transform="translate(4763.25 0)"/>
     <use xlink:href="#DejaVuSans-50" transform="translate(4826.625 0)"/>
     <use xlink:href="#DejaVuSans-48" transform="translate(4924.03125 0)"/>
     <use xlink:href="#DejaVuSans-51" transform="translate(4985.5625 0)"/>
     <use xlink:href="#DejaVuSans-57" transform="translate(5048.9375 0)"/>
     <use xlink:href="#DejaVuSans-3" transform="translate(5088.140625 0)"/>
     <use xlink:href="#DejaVuSans-46" transform="translate(5119.921875 0)"/>
     <use xlink:href="#DejaVuSans-52" transform="translate(5174.90625 0)"/>
     <use xlink:href="#DejaVuSans-59" transform="translate(5236.09375 0)"/>
     <use xlink:href="#DejaVuSans-48" transform="translate(5295.28125 0)"/>
     <use xlink:href="#DejaVuSans-55" transform="translate(5356.8125 0)"/>
     <use xlink:href="#DejaVuSans-44" transform="translate(5397.921875 0)"/>
     <use xlink:href="#DejaVuSans-4a" transform="translate(5459.203125 0)"/>
     <use xlink:href="#DejaVuSans-48" transform="translate(5522.6875 0)"/>
     <use xlink:href="#DejaVuSans-1e" transform="translate(5584.21875 0)"/>
     <use xlink:href="#DejaVuSans-3" transform="translate(5617.90625 0)"/>
     <use xlink:href="#DejaVuSans-4f" transform="translate(5649.6875 0)"/>
     <use xlink:href="#DejaVuSans-44" transform="translate(5677.46875 0)"/>
     <use xlink:href="#DejaVuSans-57" transform="translate(5738.75 0)"/>
     <use xlink:href="#DejaVuSans-48" transform="translate(5777.953125 0)"/>
     <use xlink:href="#DejaVuSans-56" transform="translate(5839.484375 0)"/>
     <use xlink:href="#DejaVuSans-57" transform="translate(5891.578125 0)"/>
     <use xlink:href="#DejaVuSans-3" transform="translate(5930.78125 0)"/>
     <use xlink:href="#DejaVuSans-44" transform="translate(5962.5625 0)"/>
     <use xlink:href="#DejaVuSans-55" transform="translate(6023.84375 0)"/>
     <use xlink:href="#DejaVuSans-46" transform="translate(6062.75 0)"/>
     <use xlink:href="#DejaVuSans-4b" transform="translate(6117.734375 0)"/>
     <use xlink:href="#DejaVuSans-4c" transform="translate(6181.109375 0)"/>
     <use xlink:href="#DejaVuSans-59" transform="translate(6208.890625 0)"/>
     <use xlink:href="#DejaVuSans-48" transform="translate(6268.078125 0)"/>
     <use xlink:href="#DejaVuSans-47" transform="translate(6329.609375 0)"/>
     <use xlink:href="#DejaVuSans-3" transform="translate(6393.09375 0)"/>
     <use xlink:href="#DejaVuSans-52" transform="translate(6424.875 0)"/>
     <use xlink:href="#DejaVuSans-45" transform="translate(6486.0625 0)"/>
     <use xlink:href="#DejaVuSans-56" transform="translate(6549.546875 0)"/>
     <use xlink:href="#DejaVuSans-48" transform="translate(6601.640625 0)"/>
     <use xlink:href="#DejaVuSans-55" transform="translate(6663.171875 0)"/>
     <use xlink:href="#DejaVuSans-59" transform="translate(6704.28125 0)"/>
     <use xlink:href="#DejaVuSans-44" transform="translate(6763.46875 0)"/>
     <use xlink:href="#DejaVuSans-57" transform="translate(6824.75 0)"/>
     <use xlink:href="#DejaVuSans-4c" transform="translate(6863.953125 0)"/>
     <use xlink:href="#DejaVuSans-52" transform="translate(6891.734375 0)"/>
     <use xlink:href="#DejaVuSans-51" transform="translate(6952.921875 0)"/>
     <use xlink:href="#DejaVuSans-3" transform="translate(7016.296875 0)"/>
     <use xlink:href="#DejaVuSans-15" transform="translate(7048.078125 0)"/>
     <use xlink:href="#DejaVuSans-13" transform="translate(7111.703125 0)"/>
     <use xlink:href="#DejaVuSans-14" transform="translate(7175.328125 0)"/>
     <use xlink:href="#DejaVuSans-1c" transform="translate(7238.953125 0)"/>
    </g>
   </g>
   <g id="text_17">
    <!-- Central-government revenue excluding grants -->
    <g style="fill: #17221f" transform="translate(45.013203 17.837812) scale(0.14 -0.14)">
     <defs>
      <path id="DejaVuSans-Bold-26" d="M 4288 256 
Q 3956 84 3597 -3 
Q 3238 -91 2847 -91 
Q 1681 -91 1000 561 
Q 319 1213 319 2328 
Q 319 3447 1000 4098 
Q 1681 4750 2847 4750 
Q 3238 4750 3597 4662 
Q 3956 4575 4288 4403 
L 4288 3438 
Q 3953 3666 3628 3772 
Q 3303 3878 2944 3878 
Q 2300 3878 1931 3465 
Q 1563 3053 1563 2328 
Q 1563 1606 1931 1193 
Q 2300 781 2944 781 
Q 3303 781 3628 887 
Q 3953 994 4288 1222 
L 4288 256 
z
" transform="scale(0.015625)"/>
      <path id="DejaVuSans-Bold-48" d="M 4031 1759 
L 4031 1441 
L 1416 1441 
Q 1456 1047 1700 850 
Q 1944 653 2381 653 
Q 2734 653 3104 758 
Q 3475 863 3866 1075 
L 3866 213 
Q 3469 63 3072 -14 
Q 2675 -91 2278 -91 
Q 1328 -91 801 392 
Q 275 875 275 1747 
Q 275 2603 792 3093 
Q 1309 3584 2216 3584 
Q 3041 3584 3536 3087 
Q 4031 2591 4031 1759 
z
M 2881 2131 
Q 2881 2450 2695 2645 
Q 2509 2841 2209 2841 
Q 1884 2841 1681 2658 
Q 1478 2475 1428 2131 
L 2881 2131 
z
" transform="scale(0.015625)"/>
      <path id="DejaVuSans-Bold-51" d="M 4056 2131 
L 4056 0 
L 2931 0 
L 2931 347 
L 2931 1631 
Q 2931 2084 2911 2256 
Q 2891 2428 2841 2509 
Q 2775 2619 2662 2680 
Q 2550 2741 2406 2741 
Q 2056 2741 1856 2470 
Q 1656 2200 1656 1722 
L 1656 0 
L 538 0 
L 538 3500 
L 1656 3500 
L 1656 2988 
Q 1909 3294 2193 3439 
Q 2478 3584 2822 3584 
Q 3428 3584 3742 3212 
Q 4056 2841 4056 2131 
z
" transform="scale(0.015625)"/>
      <path id="DejaVuSans-Bold-57" d="M 1759 4494 
L 1759 3500 
L 2913 3500 
L 2913 2700 
L 1759 2700 
L 1759 1216 
Q 1759 972 1856 886 
Q 1953 800 2241 800 
L 2816 800 
L 2816 0 
L 1856 0 
Q 1194 0 917 276 
Q 641 553 641 1216 
L 641 2700 
L 84 2700 
L 84 3500 
L 641 3500 
L 641 4494 
L 1759 4494 
z
" transform="scale(0.015625)"/>
      <path id="DejaVuSans-Bold-55" d="M 3138 2547 
Q 2991 2616 2845 2648 
Q 2700 2681 2553 2681 
Q 2122 2681 1889 2404 
Q 1656 2128 1656 1613 
L 1656 0 
L 538 0 
L 538 3500 
L 1656 3500 
L 1656 2925 
Q 1872 3269 2151 3426 
Q 2431 3584 2822 3584 
Q 2878 3584 2943 3579 
Q 3009 3575 3134 3559 
L 3138 2547 
z
" transform="scale(0.015625)"/>
      <path id="DejaVuSans-Bold-44" d="M 2106 1575 
Q 1756 1575 1579 1456 
Q 1403 1338 1403 1106 
Q 1403 894 1545 773 
Q 1688 653 1941 653 
Q 2256 653 2472 879 
Q 2688 1106 2688 1447 
L 2688 1575 
L 2106 1575 
z
M 3816 1997 
L 3816 0 
L 2688 0 
L 2688 519 
Q 2463 200 2181 54 
Q 1900 -91 1497 -91 
Q 953 -91 614 226 
Q 275 544 275 1050 
Q 275 1666 698 1953 
Q 1122 2241 2028 2241 
L 2688 2241 
L 2688 2328 
Q 2688 2594 2478 2717 
Q 2269 2841 1825 2841 
Q 1466 2841 1156 2769 
Q 847 2697 581 2553 
L 581 3406 
Q 941 3494 1303 3539 
Q 1666 3584 2028 3584 
Q 2975 3584 3395 3211 
Q 3816 2838 3816 1997 
z
" transform="scale(0.015625)"/>
      <path id="DejaVuSans-Bold-4f" d="M 538 4863 
L 1656 4863 
L 1656 0 
L 538 0 
L 538 4863 
z
" transform="scale(0.015625)"/>
      <path id="DejaVuSans-Bold-10" d="M 347 2297 
L 2309 2297 
L 2309 1388 
L 347 1388 
L 347 2297 
z
" transform="scale(0.015625)"/>
      <path id="DejaVuSans-Bold-4a" d="M 2919 594 
Q 2688 288 2409 144 
Q 2131 0 1766 0 
Q 1125 0 706 504 
Q 288 1009 288 1791 
Q 288 2575 706 3076 
Q 1125 3578 1766 3578 
Q 2131 3578 2409 3434 
Q 2688 3291 2919 2981 
L 2919 3500 
L 4044 3500 
L 4044 353 
Q 4044 -491 3511 -936 
Q 2978 -1381 1966 -1381 
Q 1638 -1381 1331 -1331 
Q 1025 -1281 716 -1178 
L 716 -306 
Q 1009 -475 1290 -558 
Q 1572 -641 1856 -641 
Q 2406 -641 2662 -400 
Q 2919 -159 2919 353 
L 2919 594 
z
M 2181 2772 
Q 1834 2772 1640 2515 
Q 1447 2259 1447 1791 
Q 1447 1309 1634 1061 
Q 1822 813 2181 813 
Q 2531 813 2725 1069 
Q 2919 1325 2919 1791 
Q 2919 2259 2725 2515 
Q 2531 2772 2181 2772 
z
" transform="scale(0.015625)"/>
      <path id="DejaVuSans-Bold-52" d="M 2203 2784 
Q 1831 2784 1636 2517 
Q 1441 2250 1441 1747 
Q 1441 1244 1636 976 
Q 1831 709 2203 709 
Q 2569 709 2762 976 
Q 2956 1244 2956 1747 
Q 2956 2250 2762 2517 
Q 2569 2784 2203 2784 
z
M 2203 3584 
Q 3106 3584 3614 3096 
Q 4122 2609 4122 1747 
Q 4122 884 3614 396 
Q 3106 -91 2203 -91 
Q 1297 -91 786 396 
Q 275 884 275 1747 
Q 275 2609 786 3096 
Q 1297 3584 2203 3584 
z
" transform="scale(0.015625)"/>
      <path id="DejaVuSans-Bold-59" d="M 97 3500 
L 1216 3500 
L 2088 1081 
L 2956 3500 
L 4078 3500 
L 2700 0 
L 1472 0 
L 97 3500 
z
" transform="scale(0.015625)"/>
      <path id="DejaVuSans-Bold-50" d="M 3781 2919 
Q 3994 3244 4286 3414 
Q 4578 3584 4928 3584 
Q 5531 3584 5847 3212 
Q 6163 2841 6163 2131 
L 6163 0 
L 5038 0 
L 5038 1825 
Q 5041 1866 5042 1909 
Q 5044 1953 5044 2034 
Q 5044 2406 4934 2573 
Q 4825 2741 4581 2741 
Q 4263 2741 4089 2478 
Q 3916 2216 3909 1719 
L 3909 0 
L 2784 0 
L 2784 1825 
Q 2784 2406 2684 2573 
Q 2584 2741 2328 2741 
Q 2006 2741 1831 2477 
Q 1656 2213 1656 1722 
L 1656 0 
L 531 0 
L 531 3500 
L 1656 3500 
L 1656 2988 
Q 1863 3284 2130 3434 
Q 2397 3584 2719 3584 
Q 3081 3584 3359 3409 
Q 3638 3234 3781 2919 
z
" transform="scale(0.015625)"/>
      <path id="DejaVuSans-Bold-3" transform="scale(0.015625)"/>
      <path id="DejaVuSans-Bold-58" d="M 500 1363 
L 500 3500 
L 1625 3500 
L 1625 3150 
Q 1625 2866 1622 2436 
Q 1619 2006 1619 1863 
Q 1619 1441 1641 1255 
Q 1663 1069 1716 984 
Q 1784 875 1895 815 
Q 2006 756 2150 756 
Q 2500 756 2700 1025 
Q 2900 1294 2900 1772 
L 2900 3500 
L 4019 3500 
L 4019 0 
L 2900 0 
L 2900 506 
Q 2647 200 2364 54 
Q 2081 -91 1741 -91 
Q 1134 -91 817 281 
Q 500 653 500 1363 
z
" transform="scale(0.015625)"/>
      <path id="DejaVuSans-Bold-5b" d="M 1422 1791 
L 159 3500 
L 1344 3500 
L 2059 2463 
L 2784 3500 
L 3969 3500 
L 2706 1797 
L 4031 0 
L 2847 0 
L 2059 1106 
L 1281 0 
L 97 0 
L 1422 1791 
z
" transform="scale(0.015625)"/>
      <path id="DejaVuSans-Bold-46" d="M 3366 3391 
L 3366 2478 
Q 3138 2634 2908 2709 
Q 2678 2784 2431 2784 
Q 1963 2784 1702 2511 
Q 1441 2238 1441 1747 
Q 1441 1256 1702 982 
Q 1963 709 2431 709 
Q 2694 709 2930 787 
Q 3166 866 3366 1019 
L 3366 103 
Q 3103 6 2833 -42 
Q 2563 -91 2291 -91 
Q 1344 -91 809 395 
Q 275 881 275 1747 
Q 275 2613 809 3098 
Q 1344 3584 2291 3584 
Q 2566 3584 2833 3536 
Q 3100 3488 3366 3391 
z
" transform="scale(0.015625)"/>
      <path id="DejaVuSans-Bold-47" d="M 2919 2988 
L 2919 4863 
L 4044 4863 
L 4044 0 
L 2919 0 
L 2919 506 
Q 2688 197 2409 53 
Q 2131 -91 1766 -91 
Q 1119 -91 703 423 
Q 288 938 288 1747 
Q 288 2556 703 3070 
Q 1119 3584 1766 3584 
Q 2128 3584 2408 3439 
Q 2688 3294 2919 2988 
z
M 2181 722 
Q 2541 722 2730 984 
Q 2919 1247 2919 1747 
Q 2919 2247 2730 2509 
Q 2541 2772 2181 2772 
Q 1825 2772 1636 2509 
Q 1447 2247 1447 1747 
Q 1447 1247 1636 984 
Q 1825 722 2181 722 
z
" transform="scale(0.015625)"/>
      <path id="DejaVuSans-Bold-4c" d="M 538 3500 
L 1656 3500 
L 1656 0 
L 538 0 
L 538 3500 
z
M 538 4863 
L 1656 4863 
L 1656 3950 
L 538 3950 
L 538 4863 
z
" transform="scale(0.015625)"/>
      <path id="DejaVuSans-Bold-56" d="M 3272 3391 
L 3272 2541 
Q 2913 2691 2578 2766 
Q 2244 2841 1947 2841 
Q 1628 2841 1473 2761 
Q 1319 2681 1319 2516 
Q 1319 2381 1436 2309 
Q 1553 2238 1856 2203 
L 2053 2175 
Q 2913 2066 3209 1816 
Q 3506 1566 3506 1031 
Q 3506 472 3093 190 
Q 2681 -91 1863 -91 
Q 1516 -91 1145 -36 
Q 775 19 384 128 
L 384 978 
Q 719 816 1070 734 
Q 1422 653 1784 653 
Q 2113 653 2278 743 
Q 2444 834 2444 1013 
Q 2444 1163 2330 1236 
Q 2216 1309 1875 1350 
L 1678 1375 
Q 931 1469 631 1722 
Q 331 1975 331 2491 
Q 331 3047 712 3315 
Q 1094 3584 1881 3584 
Q 2191 3584 2531 3537 
Q 2872 3491 3272 3391 
z
" transform="scale(0.015625)"/>
     </defs>
     <use xlink:href="#DejaVuSans-Bold-26"/>
     <use xlink:href="#DejaVuSans-Bold-48" transform="translate(73.390625 0)"/>
     <use xlink:href="#DejaVuSans-Bold-51" transform="translate(141.21875 0)"/>
     <use xlink:href="#DejaVuSans-Bold-57" transform="translate(212.40625 0)"/>
     <use xlink:href="#DejaVuSans-Bold-55" transform="translate(260.203125 0)"/>
     <use xlink:href="#DejaVuSans-Bold-44" transform="translate(309.515625 0)"/>
     <use xlink:href="#DejaVuSans-Bold-4f" transform="translate(377 0)"/>
     <use xlink:href="#DejaVuSans-Bold-10" transform="translate(411.28125 0)"/>
     <use xlink:href="#DejaVuSans-Bold-4a" transform="translate(452.78125 0)"/>
     <use xlink:href="#DejaVuSans-Bold-52" transform="translate(524.359375 0)"/>
     <use xlink:href="#DejaVuSans-Bold-59" transform="translate(593.0625 0)"/>
     <use xlink:href="#DejaVuSans-Bold-48" transform="translate(658.25 0)"/>
     <use xlink:href="#DejaVuSans-Bold-55" transform="translate(726.078125 0)"/>
     <use xlink:href="#DejaVuSans-Bold-51" transform="translate(775.390625 0)"/>
     <use xlink:href="#DejaVuSans-Bold-50" transform="translate(846.578125 0)"/>
     <use xlink:href="#DejaVuSans-Bold-48" transform="translate(950.78125 0)"/>
     <use xlink:href="#DejaVuSans-Bold-51" transform="translate(1018.609375 0)"/>
     <use xlink:href="#DejaVuSans-Bold-57" transform="translate(1089.796875 0)"/>
     <use xlink:href="#DejaVuSans-Bold-3" transform="translate(1137.59375 0)"/>
     <use xlink:href="#DejaVuSans-Bold-55" transform="translate(1172.40625 0)"/>
     <use xlink:href="#DejaVuSans-Bold-48" transform="translate(1221.71875 0)"/>
     <use xlink:href="#DejaVuSans-Bold-59" transform="translate(1289.546875 0)"/>
     <use xlink:href="#DejaVuSans-Bold-48" transform="translate(1354.734375 0)"/>
     <use xlink:href="#DejaVuSans-Bold-51" transform="translate(1422.5625 0)"/>
     <use xlink:href="#DejaVuSans-Bold-58" transform="translate(1493.75 0)"/>
     <use xlink:href="#DejaVuSans-Bold-48" transform="translate(1564.9375 0)"/>
     <use xlink:href="#DejaVuSans-Bold-3" transform="translate(1632.765625 0)"/>
     <use xlink:href="#DejaVuSans-Bold-48" transform="translate(1667.578125 0)"/>
     <use xlink:href="#DejaVuSans-Bold-5b" transform="translate(1735.40625 0)"/>
     <use xlink:href="#DejaVuSans-Bold-46" transform="translate(1799.90625 0)"/>
     <use xlink:href="#DejaVuSans-Bold-4f" transform="translate(1859.1875 0)"/>
     <use xlink:href="#DejaVuSans-Bold-58" transform="translate(1893.46875 0)"/>
     <use xlink:href="#DejaVuSans-Bold-47" transform="translate(1964.65625 0)"/>
     <use xlink:href="#DejaVuSans-Bold-4c" transform="translate(2036.234375 0)"/>
     <use xlink:href="#DejaVuSans-Bold-51" transform="translate(2070.515625 0)"/>
     <use xlink:href="#DejaVuSans-Bold-4a" transform="translate(2141.703125 0)"/>
     <use xlink:href="#DejaVuSans-Bold-3" transform="translate(2213.28125 0)"/>
     <use xlink:href="#DejaVuSans-Bold-4a" transform="translate(2248.09375 0)"/>
     <use xlink:href="#DejaVuSans-Bold-55" transform="translate(2319.671875 0)"/>
     <use xlink:href="#DejaVuSans-Bold-44" transform="translate(2368.984375 0)"/>
     <use xlink:href="#DejaVuSans-Bold-51" transform="translate(2436.46875 0)"/>
     <use xlink:href="#DejaVuSans-Bold-57" transform="translate(2507.65625 0)"/>
     <use xlink:href="#DejaVuSans-Bold-56" transform="translate(2555.453125 0)"/>
    </g>
   </g>
   <g id="legend_1">
    <g id="line2d_23">
     <path d="M 52.213203 62.316562 
L 60.213203 62.316562 
L 68.213203 62.316562 
" style="fill: none; stroke: #1f5f78; stroke-width: 2.8; stroke-linecap: square"/>
     <g>
      <use xlink:href="#mc7fc03361e" x="60.213203" y="62.316562" style="fill: #1f5f78; stroke: #1f5f78"/>
     </g>
    </g>
    <g id="text_18">
     <!-- MMR -->
     <g transform="translate(74.613203 65.116562) scale(0.08 -0.08)">
      <defs>
       <path id="DejaVuSans-30" d="M 628 4666 
L 1569 4666 
L 2759 1491 
L 3956 4666 
L 4897 4666 
L 4897 0 
L 4281 0 
L 4281 4097 
L 3078 897 
L 2444 897 
L 1241 4097 
L 1241 0 
L 628 0 
L 628 4666 
z
" transform="scale(0.015625)"/>
       <path id="DejaVuSans-35" d="M 2841 2188 
Q 3044 2119 3236 1894 
Q 3428 1669 3622 1275 
L 4263 0 
L 3584 0 
L 2988 1197 
Q 2756 1666 2539 1819 
Q 2322 1972 1947 1972 
L 1259 1972 
L 1259 0 
L 628 0 
L 628 4666 
L 2053 4666 
Q 2853 4666 3247 4331 
Q 3641 3997 3641 3322 
Q 3641 2881 3436 2590 
Q 3231 2300 2841 2188 
z
M 1259 4147 
L 1259 2491 
L 2053 2491 
Q 2509 2491 2742 2702 
Q 2975 2913 2975 3322 
Q 2975 3731 2742 3939 
Q 2509 4147 2053 4147 
L 1259 4147 
z
" transform="scale(0.015625)"/>
      </defs>
      <use xlink:href="#DejaVuSans-30"/>
      <use xlink:href="#DejaVuSans-30" transform="translate(86.28125 0)"/>
      <use xlink:href="#DejaVuSans-35" transform="translate(172.5625 0)"/>
     </g>
    </g>
   </g>
  </g>
 </g>
 <defs>
  <clipPath id="p026694e7cb">
   <rect x="45.013203" y="51.837812" width="486.889141" height="287.363281"/>
  </clipPath>
 </defs>
</svg>
