<svg xmlns="http://www.w3.org/2000/svg" viewBox="0 0 1100 760" role="img" aria-label="Vietnam FDI investors sectors and regional concentration in 2025">
  
  <style>
    .title{font:700 28px Arial,sans-serif;fill:#172026}
    .subtitle{font:15px Arial,sans-serif;fill:#526069}
    .panel-title{font:700 17px Arial,sans-serif;fill:#172026}
    .panel-y{font:11px Arial,sans-serif;fill:#526069;text-anchor:end}
    .panel-x{font:11px Arial,sans-serif;fill:#526069;text-anchor:middle}
    .panel-last{font:700 11px Arial,sans-serif;fill:#172026}
    .legend{font:11px Arial,sans-serif;fill:#526069}
    .label{font:12px Arial,sans-serif;fill:#526069}
    .small{font:11px Arial,sans-serif;fill:#65717a}
    .value{font:700 22px Arial,sans-serif;fill:#172026}
    .source{font:12px Arial,sans-serif;fill:#65717a}
  </style>
  <rect width="1100" height="760" fill="#f6f4ee"/>
  <text x="54" y="44" class="title">FDI Structure: Investors, Sectors, and Regional Concentration</text>
  <text x="54" y="68" class="subtitle">FDI is geographically concentrated, dominated by Asian investors, and still led by processing and manufacturing.</text>
  <rect x="54" y="102" width="476" height="338" rx="10" fill="#ffffff" stroke="#d7dee2"/><text x="76" y="136" class="panel-title">Top investors in newly licensed FDI, 2025</text><text x="76" y="181" class="small">Singapore</text><rect x="214" y="166" width="250.00" height="18" rx="5" fill="#176b63"/><text x="472.00" y="180" class="small">USD 4.84 bn | 27.9%</text><text x="76" y="211" class="small">China</text><rect x="214" y="196" width="188.02" height="18" rx="5" fill="#176b63"/><text x="410.02" y="210" class="small">USD 3.64 bn | 21.0%</text><text x="76" y="241" class="small">Hong Kong (China)</text><rect x="214" y="226" width="89.36" height="18" rx="5" fill="#176b63"/><text x="311.36" y="240" class="small">USD 1.73 bn | 10.0%</text><text x="76" y="271" class="small">Japan</text><rect x="214" y="256" width="83.68" height="18" rx="5" fill="#176b63"/><text x="305.68" y="270" class="small">USD 1.62 bn | 9.4%</text><text x="76" y="301" class="small">Sweden</text><rect x="214" y="286" width="51.65" height="18" rx="5" fill="#176b63"/><text x="273.65" y="300" class="small">USD 1.00 bn | 5.8%</text><text x="76" y="331" class="small">Taiwan (China)</text><rect x="214" y="316" width="50.10" height="18" rx="5" fill="#176b63"/><text x="272.10" y="330" class="small">USD 0.97 bn | 5.6%</text><text x="76" y="361" class="small">Republic of Korea</text><rect x="214" y="346" width="46.49" height="18" rx="5" fill="#176b63"/><text x="268.49" y="360" class="small">USD 0.90 bn | 5.2%</text><text x="76" y="391" class="small">Other countries and territories</text><rect x="214" y="376" width="135.33" height="18" rx="5" fill="#176b63"/><text x="357.33" y="390" class="small">USD 2.62 bn | 15.1%</text>
  <rect x="570" y="102" width="476" height="150" rx="10" fill="#ffffff" stroke="#d7dee2"/><text x="592" y="136" class="panel-title">Newly licensed FDI by sector, 2025</text><rect x="592.00" y="166" width="221.48" height="30" rx="6" fill="#176b63"/><text x="592" y="224" class="small">Processing and manufac</text><text x="592" y="240" class="small">56.5% | USD 9.80 bn</text><rect x="813.48" y="166" width="83.10" height="30" rx="6" fill="#7c2f2a"/><text x="724" y="224" class="small">Real estate business</text><text x="724" y="240" class="small">21.2% | USD 3.67 bn</text><rect x="896.58" y="166" width="87.02" height="30" rx="6" fill="#b8873a"/><text x="856" y="224" class="small">Other sectors</text><text x="856" y="240" class="small">22.2% | USD 3.85 bn</text>
  <rect x="570" y="290" width="476" height="330" rx="10" fill="#ffffff" stroke="#d7dee2"/><text x="592" y="324" class="panel-title">Cumulative FDI concentration after 2025 mergers</text><text x="592" y="371" class="small">Ho Chi Minh City</text><rect x="720" y="356" width="250.00" height="18" rx="5" fill="#345995"/><text x="978.00" y="370" class="small">USD 140.70 bn</text><text x="592" y="401" class="small">Bac Ninh</text><rect x="720" y="386" width="83.24" height="18" rx="5" fill="#345995"/><text x="811.24" y="400" class="small">USD 46.85 bn</text><text x="592" y="431" class="small">Hanoi</text><rect x="720" y="416" width="81.02" height="18" rx="5" fill="#345995"/><text x="809.02" y="430" class="small">USD 45.60 bn</text><text x="592" y="461" class="small">Hai Phong</text><rect x="720" y="446" width="79.60" height="18" rx="5" fill="#345995"/><text x="807.60" y="460" class="small">USD 44.80 bn</text><text x="592" y="491" class="small">Dong Nai</text><rect x="720" y="476" width="79.32" height="18" rx="5" fill="#345995"/><text x="807.32" y="490" class="small">USD 44.64 bn</text><text x="592" y="521" class="small">Tay Ninh</text><rect x="720" y="506" width="44.42" height="18" rx="5" fill="#345995"/><text x="772.42" y="520" class="small">USD 25.00 bn</text><text x="592" y="551" class="small">Quang Ninh</text><rect x="720" y="536" width="29.25" height="18" rx="5" fill="#345995"/><text x="757.25" y="550" class="small">USD 16.46 bn</text><text x="592" y="581" class="small">Thanh Hoa</text><rect x="720" y="566" width="28.41" height="18" rx="5" fill="#345995"/><text x="756.41" y="580" class="small">USD 15.99 bn</text>
  <rect x="54" y="492" width="476" height="128" rx="10" fill="#ffffff" stroke="#d7dee2"/>
  <text x="76" y="528" class="panel-title">Concentration reading</text>
  <text x="76" y="566" class="value">USD 233.15 bn</text>
  <text x="236" y="566" class="small">top three cumulative localities: Ho Chi Minh City, Bac Ninh, Hanoi</text>
  <text x="76" y="596" class="value">USD 410.35 bn</text>
  <text x="236" y="596" class="small">top ten cumulative localities after the 2025 merger map</text>
  <text x="54" y="704" class="source">Sources: NSO 2025 for FDI totals and sector split; VnEconomy using NSO data for 2025 investor-country split; Vietnam.vn/Bao Dau Tu citing Foreign Investment Agency data for post-merger locality concentration.</text>
  <text x="54" y="724" class="source">Interpretation: concentration is efficient for industrial clusters, but it increases regional inequality and makes supplier-linkage policy a provincial governance problem.</text>
</svg>
